<svg width="177" height="34" viewBox="0 0 177 34" fill="none" xmlns="http://www.w3.org/2000/svg">
<g clip-path="url(#clip0_1424_28458)">
<path d="M4.66406 15.9998C4.66406 9.74061 9.73817 4.6665 15.9974 4.6665C22.2566 4.6665 27.3307 9.74061 27.3307 15.9998C27.3307 22.259 22.2566 27.3332 15.9974 27.3332C9.73817 27.3332 4.66406 22.259 4.66406 15.9998ZM15.9974 2.6665C8.6336 2.6665 2.66406 8.63604 2.66406 15.9998C2.66406 23.3636 8.6336 29.3332 15.9974 29.3332C23.3611 29.3332 29.3307 23.3636 29.3307 15.9998C29.3307 8.63604 23.3611 2.6665 15.9974 2.6665ZM9.44205 11.6101C8.90036 10.2508 10.2479 8.90313 11.6073 9.4448L16.9782 11.585C18.5411 12.2079 19.7922 13.427 20.4549 14.9736L22.9266 20.7408C23.5193 22.1237 22.121 23.5218 20.7381 22.9292L14.9709 20.4576C13.4245 19.7948 12.2052 18.5438 11.5824 16.9809L9.44205 11.6101ZM11.5868 11.5896L13.4403 16.2405C13.8665 17.3098 14.7006 18.1658 15.7587 18.6193L20.7601 20.7626L18.6166 15.7614C18.1631 14.7033 17.3073 13.869 16.2378 13.4429L11.5868 11.5896Z" fill="url(#paint0_linear_1424_28458)"/>
</g>
<path d="M48.6 24.74C51.68 24.74 53.72 23.66 55.28 21.78L53.36 20.14C52.32 21.38 50.88 22.3 48.6 22.3C45.08 22.3 42.88 19.66 42.88 16.14C42.88 12.62 45.08 9.98 48.6 9.98C50.68 9.98 52.12 10.78 53.12 12.1L55.12 10.46C53.6 8.62 51.56 7.5 48.6 7.5C43.72 7.5 40 11.3 40 16.14C40 20.98 43.72 24.74 48.6 24.74Z" fill="white"/>
<path d="M66.0746 24.74C70.9946 24.74 74.7946 20.98 74.7946 16.14C74.7946 11.3 70.9946 7.5 66.0746 7.5C61.1146 7.5 57.2746 11.3 57.2746 16.14C57.2746 20.98 61.1146 24.74 66.0746 24.74ZM66.0746 22.34C62.5146 22.34 60.1146 19.7 60.1146 16.14C60.1146 12.58 62.5146 9.94 66.0746 9.94C69.5946 9.94 71.9546 12.58 71.9546 16.14C71.9546 19.7 69.5946 22.34 66.0746 22.34Z" fill="white"/>
<path d="M78.4798 24.42H81.2798V15.14C81.2798 11.86 83.1198 10.06 85.7598 10.06C88.3198 10.06 89.3597 11.54 89.3597 14.18V24.42H92.1598V15.14C92.1598 11.86 93.9598 10.06 96.5998 10.06C99.1998 10.06 100.24 11.54 100.24 14.18V24.42H103V13.82C103 9.9 100.76 7.5 97.1198 7.5C94.7198 7.5 92.6398 8.74 91.3997 10.98C90.6797 8.9 88.9997 7.5 86.3997 7.5C84.0797 7.5 82.2798 8.74 81.1998 10.98L81.2798 7.86H78.4798V24.42Z" fill="white"/>
<path d="M107.591 32.9H110.351V20.98C111.431 23.14 113.711 24.74 116.671 24.74C121.191 24.74 124.711 21.06 124.711 16.1C124.711 11.18 121.231 7.5 116.711 7.5C113.591 7.5 111.431 9.14 110.271 11.42L110.351 7.86H107.591V32.9ZM116.111 22.3C112.591 22.3 110.231 19.7 110.231 16.1C110.231 12.54 112.591 9.98 116.111 9.98C119.591 9.98 121.831 12.54 121.831 16.1C121.831 19.7 119.591 22.3 116.111 22.3Z" fill="white"/>
<path d="M135.26 24.74C138.26 24.74 140.5 23.06 141.62 20.86L141.54 24.42H144.34V7.86H141.54L141.62 11.42C140.46 9.1 138.38 7.5 135.3 7.5C130.78 7.5 127.34 11.18 127.34 16.1C127.34 21.06 130.82 24.74 135.26 24.74ZM135.86 22.3C132.38 22.3 130.26 19.7 130.26 16.1C130.26 12.54 132.38 9.98 135.86 9.98C139.34 9.98 141.62 12.62 141.62 16.14C141.62 19.7 139.34 22.3 135.86 22.3Z" fill="white"/>
<path d="M154.653 24.74C158.813 24.74 160.692 22.62 160.692 19.82C160.692 16.62 158.013 15.5 155.213 14.74C152.293 13.9 151.293 13.46 151.293 11.9C151.293 10.62 152.373 9.78 154.173 9.78C155.773 9.78 156.932 10.5 157.772 11.66L159.692 10.18C158.532 8.54 156.693 7.5 154.173 7.5C151.133 7.5 148.732 9.14 148.732 12.02C148.732 15.14 151.132 16.18 153.732 16.94C156.612 17.78 158.052 18.18 158.052 19.98C158.052 21.5 156.773 22.46 154.533 22.46C152.133 22.46 150.692 21.26 149.732 19.66L147.573 20.9C148.653 22.98 151.013 24.74 154.653 24.74Z" fill="white"/>
<path d="M169.857 24.74C174.017 24.74 175.897 22.62 175.897 19.82C175.897 16.62 173.217 15.5 170.417 14.74C167.497 13.9 166.497 13.46 166.497 11.9C166.497 10.62 167.577 9.78 169.377 9.78C170.977 9.78 172.137 10.5 172.977 11.66L174.897 10.18C173.737 8.54 171.897 7.5 169.377 7.5C166.337 7.5 163.937 9.14 163.937 12.02C163.937 15.14 166.337 16.18 168.937 16.94C171.817 17.78 173.257 18.18 173.257 19.98C173.257 21.5 171.977 22.46 169.737 22.46C167.337 22.46 165.897 21.26 164.937 19.66L162.777 20.9C163.857 22.98 166.217 24.74 169.857 24.74Z" fill="white"/>
<path d="M48.6 24.74C51.68 24.74 53.72 23.66 55.28 21.78L53.36 20.14C52.32 21.38 50.88 22.3 48.6 22.3C45.08 22.3 42.88 19.66 42.88 16.14C42.88 12.62 45.08 9.98 48.6 9.98C50.68 9.98 52.12 10.78 53.12 12.1L55.12 10.46C53.6 8.62 51.56 7.5 48.6 7.5C43.72 7.5 40 11.3 40 16.14C40 20.98 43.72 24.74 48.6 24.74Z" stroke="white" stroke-width="0.5"/>
<path d="M66.0746 24.74C70.9946 24.74 74.7946 20.98 74.7946 16.14C74.7946 11.3 70.9946 7.5 66.0746 7.5C61.1146 7.5 57.2746 11.3 57.2746 16.14C57.2746 20.98 61.1146 24.74 66.0746 24.74ZM66.0746 22.34C62.5146 22.34 60.1146 19.7 60.1146 16.14C60.1146 12.58 62.5146 9.94 66.0746 9.94C69.5946 9.94 71.9546 12.58 71.9546 16.14C71.9546 19.7 69.5946 22.34 66.0746 22.34Z" stroke="white" stroke-width="0.5"/>
<path d="M78.4798 24.42H81.2798V15.14C81.2798 11.86 83.1198 10.06 85.7598 10.06C88.3198 10.06 89.3597 11.54 89.3597 14.18V24.42H92.1598V15.14C92.1598 11.86 93.9598 10.06 96.5998 10.06C99.1998 10.06 100.24 11.54 100.24 14.18V24.42H103V13.82C103 9.9 100.76 7.5 97.1198 7.5C94.7198 7.5 92.6398 8.74 91.3997 10.98C90.6797 8.9 88.9997 7.5 86.3997 7.5C84.0797 7.5 82.2798 8.74 81.1998 10.98L81.2798 7.86H78.4798V24.42Z" stroke="white" stroke-width="0.5"/>
<path d="M107.591 32.9H110.351V20.98C111.431 23.14 113.711 24.74 116.671 24.74C121.191 24.74 124.711 21.06 124.711 16.1C124.711 11.18 121.231 7.5 116.711 7.5C113.591 7.5 111.431 9.14 110.271 11.42L110.351 7.86H107.591V32.9ZM116.111 22.3C112.591 22.3 110.231 19.7 110.231 16.1C110.231 12.54 112.591 9.98 116.111 9.98C119.591 9.98 121.831 12.54 121.831 16.1C121.831 19.7 119.591 22.3 116.111 22.3Z" stroke="white" stroke-width="0.5"/>
<path d="M135.26 24.74C138.26 24.74 140.5 23.06 141.62 20.86L141.54 24.42H144.34V7.86H141.54L141.62 11.42C140.46 9.1 138.38 7.5 135.3 7.5C130.78 7.5 127.34 11.18 127.34 16.1C127.34 21.06 130.82 24.74 135.26 24.74ZM135.86 22.3C132.38 22.3 130.26 19.7 130.26 16.1C130.26 12.54 132.38 9.98 135.86 9.98C139.34 9.98 141.62 12.62 141.62 16.14C141.62 19.7 139.34 22.3 135.86 22.3Z" stroke="white" stroke-width="0.5"/>
<path d="M154.653 24.74C158.813 24.74 160.692 22.62 160.692 19.82C160.692 16.62 158.013 15.5 155.213 14.74C152.293 13.9 151.293 13.46 151.293 11.9C151.293 10.62 152.373 9.78 154.173 9.78C155.773 9.78 156.932 10.5 157.772 11.66L159.692 10.18C158.532 8.54 156.693 7.5 154.173 7.5C151.133 7.5 148.732 9.14 148.732 12.02C148.732 15.14 151.132 16.18 153.732 16.94C156.612 17.78 158.052 18.18 158.052 19.98C158.052 21.5 156.773 22.46 154.533 22.46C152.133 22.46 150.692 21.26 149.732 19.66L147.573 20.9C148.653 22.98 151.013 24.74 154.653 24.74Z" stroke="white" stroke-width="0.5"/>
<path d="M169.857 24.74C174.017 24.74 175.897 22.62 175.897 19.82C175.897 16.62 173.217 15.5 170.417 14.74C167.497 13.9 166.497 13.46 166.497 11.9C166.497 10.62 167.577 9.78 169.377 9.78C170.977 9.78 172.137 10.5 172.977 11.66L174.897 10.18C173.737 8.54 171.897 7.5 169.377 7.5C166.337 7.5 163.937 9.14 163.937 12.02C163.937 15.14 166.337 16.18 168.937 16.94C171.817 17.78 173.257 18.18 173.257 19.98C173.257 21.5 171.977 22.46 169.737 22.46C167.337 22.46 165.897 21.26 164.937 19.66L162.777 20.9C163.857 22.98 166.217 24.74 169.857 24.74Z" stroke="white" stroke-width="0.5"/>
<defs>
<linearGradient id="paint0_linear_1424_28458" x1="15.9974" y1="29.3332" x2="15.9974" y2="2.6665" gradientUnits="userSpaceOnUse">
<stop stop-color="#337DAF"/>
<stop offset="1" stop-color="#4AC0B2"/>
</linearGradient>
<clipPath id="clip0_1424_28458">
<rect width="32" height="32" rx="4.65" fill="white"/>
</clipPath>
</defs>
</svg>
